<?xml version="1.0" standalone="no"?>
<!DOCTYPE svg PUBLIC "-//W3C//DTD SVG 20010904//EN"
 "http://www.w3.org/TR/2001/REC-SVG-20010904/DTD/svg10.dtd">
<svg version="1.0" xmlns="http://www.w3.org/2000/svg"
 viewBox="0 0 2600.000000 2600.000000"
 preserveAspectRatio="xMidYMid meet">
<metadata>
Created by potrace 1.15, written by Peter Selinger 2001-2017
</metadata>
<g transform="translate(0.000000,2600.000000) scale(0.100000,-0.100000)"
fill="#000000" stroke="none">
<path d="M11880 23244 c-181 -39 -344 -176 -426 -360 -129 -287 -121 -668 22
-1108 45 -139 70 -202 184 -461 360 -820 766 -2016 925 -2725 79 -352 148
-620 258 -995 167 -568 215 -767 253 -1031 31 -217 18 -519 -27 -630 -11 -28
-13 -25 -46 76 -158 479 -451 1640 -503 1988 -22 146 -35 188 -126 396 -150
340 -635 1315 -900 1808 -124 229 -194 403 -419 1038 -221 621 -325 821 -511
974 -128 106 -254 156 -390 156 -290 0 -496 -222 -560 -601 -22 -132 -15 -384
15 -544 56 -299 144 -547 338 -945 237 -488 360 -853 713 -2119 168 -605 191
-705 274 -1201 96 -571 195 -1081 340 -1758 25 -117 46 -229 46 -250 0 -102
-171 -273 -363 -363 -35 -16 -81 -30 -102 -31 -34 -1 -44 4 -76 41 -149 167
-518 816 -702 1231 -71 161 -113 281 -138 394 -37 169 -79 234 -309 486 -331
362 -473 568 -715 1040 -345 672 -864 1408 -1065 1510 -92 47 -259 46 -390 -3
-166 -61 -282 -197 -325 -378 -32 -137 -16 -367 41 -579 75 -280 287 -733 507
-1085 69 -109 205 -394 322 -670 53 -126 140 -331 192 -455 52 -124 137 -306
188 -405 104 -203 127 -268 269 -760 180 -626 302 -946 460 -1204 l51 -85 -1
-290 c-1 -160 -9 -493 -18 -741 -55 -1516 -49 -2563 20 -3495 104 -1425 361
-2455 762 -3053 41 -62 86 -138 99 -170 55 -134 94 -381 114 -722 13 -227 7
-1091 -10 -1395 -40 -695 -84 -1258 -147 -1888 l-7 -62 2861 0 2861 0 -5 33
c-6 47 -31 441 -54 852 -74 1350 -76 2383 -4 2950 34 272 73 403 189 640 208
426 553 925 1355 1960 540 697 649 851 690 980 24 74 168 400 494 1118 444
977 615 1373 703 1624 32 94 38 123 41 222 3 71 -3 174 -14 280 -26 227 -26
584 0 726 60 332 184 647 388 985 97 162 106 179 119 239 27 128 -57 241 -222
297 -250 85 -624 34 -967 -131 -377 -181 -697 -496 -891 -879 -34 -67 -51 -91
-55 -79 -9 31 -65 447 -96 718 -82 719 -149 1478 -270 3055 -39 503 -75 950
-81 993 -17 130 -70 271 -364 976 -322 774 -362 882 -431 1154 -101 401 -204
687 -414 1137 -223 478 -276 567 -429 720 -158 156 -287 216 -449 208 -119 -6
-195 -42 -283 -136 -95 -100 -155 -229 -193 -409 -23 -107 -38 -317 -31 -428
29 -457 144 -899 385 -1480 34 -81 68 -169 76 -194 30 -99 78 -375 139 -806
92 -642 131 -843 198 -1000 56 -132 67 -173 78 -294 30 -311 -68 -1057 -228
-1735 l-26 -111 -34 100 c-138 406 -241 817 -428 1705 -168 800 -228 1016
-337 1223 -130 246 -372 744 -458 942 -170 391 -587 1448 -709 1800 -256 734
-325 903 -438 1080 -124 191 -343 348 -545 389 -92 19 -151 19 -238 0z"/>
</g>
</svg>
