<?xml version="1.0" standalone="no"?>
<!DOCTYPE svg PUBLIC "-//W3C//DTD SVG 20010904//EN"
 "http://www.w3.org/TR/2001/REC-SVG-20010904/DTD/svg10.dtd">
<svg version="1.0" xmlns="http://www.w3.org/2000/svg"
 viewBox="0 0 2600.000000 2600.000000"
 preserveAspectRatio="xMidYMid meet">
<metadata>
Created by potrace 1.15, written by Peter Selinger 2001-2017
</metadata>
<g transform="translate(0.000000,2600.000000) scale(0.100000,-0.100000)"
fill="#000000" stroke="none">
<path d="M10955 20819 c-369 -45 -767 -216 -946 -406 -149 -159 -170 -254
-189 -868 -9 -288 -35 -693 -45 -703 -2 -2 -14 3 -27 12 -48 32 -122 39 -211
21 -401 -81 -1088 -566 -1783 -1260 -663 -662 -1078 -1264 -1169 -1695 -56
-266 31 -690 250 -1214 298 -714 773 -1542 1735 -3021 802 -1232 942 -1458
1066 -1719 144 -305 265 -905 323 -1606 60 -708 61 -1623 6 -2580 -29 -496
-103 -1348 -130 -1502 l-4 -28 3185 0 3185 0 -6 32 c-21 126 -54 723 -64 1171
-29 1185 74 2097 295 2624 64 153 122 247 258 418 630 790 1103 1606 1498
2590 66 165 64 157 172 465 235 665 433 1440 580 2270 90 513 138 848 257
1800 76 607 80 653 75 780 -27 645 -436 1453 -1040 2055 -284 282 -548 459
-791 530 -206 60 -394 35 -510 -66 l-33 -29 -32 77 c-55 134 -175 373 -242
485 -97 160 -173 261 -277 370 -202 211 -388 311 -633 340 -254 30 -595 -67
-987 -281 -52 -28 -95 -50 -96 -49 -1 2 -23 37 -50 78 -260 407 -593 643
-1020 727 -127 24 -411 24 -560 -1 -225 -37 -492 -117 -708 -213 -56 -24 -110
-47 -120 -50 -13 -4 -46 22 -120 94 -190 184 -388 287 -648 338 -102 20 -335
27 -444 14z"/>
</g>
</svg>
