<?xml version="1.0" standalone="no"?>
<!DOCTYPE svg PUBLIC "-//W3C//DTD SVG 20010904//EN"
 "http://www.w3.org/TR/2001/REC-SVG-20010904/DTD/svg10.dtd">
<svg version="1.0" xmlns="http://www.w3.org/2000/svg"
 viewBox="0 0 2600.000000 2600.000000"
 preserveAspectRatio="xMidYMid meet">
<metadata>
Created by potrace 1.15, written by Peter Selinger 2001-2017
</metadata>
<g transform="translate(0.000000,2600.000000) scale(0.100000,-0.100000)"
fill="#000000" stroke="none">
<path d="M9655 24287 c-78 -20 -137 -53 -199 -110 -90 -84 -149 -202 -188
-382 -20 -91 -17 -422 6 -565 95 -610 408 -1846 1251 -4940 424 -1556 518
-1907 622 -2315 69 -274 76 -309 77 -406 l1 -106 -48 -97 c-108 -218 -309
-345 -432 -274 -43 26 -50 38 -198 348 -285 597 -636 984 -997 1099 -143 45
-252 51 -422 21 -424 -73 -681 -286 -796 -660 -47 -154 -57 -249 -56 -545 0
-242 4 -322 32 -585 54 -523 62 -666 42 -819 -6 -41 -11 -75 -12 -77 -2 -1
-59 7 -128 17 -189 29 -551 37 -694 14 -140 -22 -221 -47 -321 -98 -154 -80
-251 -199 -307 -377 -20 -66 -23 -95 -23 -240 0 -134 5 -186 24 -275 114 -540
478 -1252 1056 -2070 l92 -130 12 -90 c31 -234 150 -742 290 -1231 374 -1311
934 -2846 1306 -3579 117 -230 186 -341 275 -440 104 -117 144 -208 189 -430
116 -580 84 -2015 -79 -3534 -11 -101 -20 -195 -20 -207 l0 -24 2703 0 2702 0
-56 228 c-254 1016 -351 2038 -264 2787 32 279 93 553 170 761 76 207 164 364
345 619 28 39 85 140 128 225 176 350 289 808 352 1424 38 383 45 563 45 1201
-1 736 -12 995 -100 2380 -71 1107 -76 1232 -82 1740 -9 757 14 973 156 1485
366 1324 1557 4594 2459 6750 300 717 516 1188 682 1490 32 58 65 129 74 159
20 69 21 199 1 276 -54 213 -240 427 -470 542 -384 192 -755 79 -980 -298
-162 -273 -654 -1244 -1167 -2304 -146 -302 -409 -845 -583 -1205 -380 -785
-1013 -2063 -1184 -2390 -271 -516 -424 -774 -511 -860 -124 -124 -496 -293
-790 -361 -105 -25 -328 -36 -387 -20 -39 11 -43 15 -71 84 -141 341 -353
1008 -1042 3277 -847 2791 -1186 3835 -1395 4300 -216 483 -592 811 -945 826
-58 2 -115 -1 -145 -9z"/>
</g>
</svg>
